<svg width="32" height="32" viewBox="0 0 32 32" fill="none" xmlns="http://www.w3.org/2000/svg">
<path d="M23 15.0013H11.14L14.77 10.6413C14.9397 10.437 15.0214 10.1738 14.997 9.90933C14.9726 9.6449 14.8442 9.40099 14.64 9.23125C14.4358 9.06151 14.1725 8.97985 13.9081 9.00423C13.6436 9.02861 13.3997 9.15704 13.23 9.36125L8.23 15.3613C8.19636 15.409 8.16628 15.4591 8.14 15.5113C8.14 15.5613 8.14 15.5913 8.07 15.6413C8.02467 15.7559 8.00094 15.878 8 16.0013C8.00094 16.1245 8.02467 16.2466 8.07 16.3613C8.07 16.4113 8.07 16.4413 8.14 16.4913C8.16628 16.5434 8.19636 16.5935 8.23 16.6413L13.23 22.6413C13.324 22.7541 13.4418 22.8449 13.5748 22.9071C13.7079 22.9694 13.8531 23.0015 14 23.0013C14.2337 23.0017 14.4601 22.9203 14.64 22.7713C14.7413 22.6873 14.825 22.5842 14.8863 22.4679C14.9477 22.3515 14.9855 22.2242 14.9975 22.0932C15.0096 21.9622 14.9957 21.8302 14.9567 21.7046C14.9176 21.579 14.8542 21.4623 14.77 21.3613L11.14 17.0013H23C23.2652 17.0013 23.5196 16.8959 23.7071 16.7084C23.8946 16.5208 24 16.2665 24 16.0013C24 15.736 23.8946 15.4817 23.7071 15.2941C23.5196 15.1066 23.2652 15.0013 23 15.0013Z" fill="#444444"/>
<circle cx="16" cy="16" r="15" stroke="#444444" stroke-width="2"/>
</svg>
