<svg xmlns="http://www.w3.org/2000/svg" width="28.284" height="28.284" viewBox="0 0 28.284 28.284">
  <path id="_Collaspe" data-name="􀫞 Collaspe" d="M11.656,3.848a9.578,9.578,0,0,0,3.86-.787A10.246,10.246,0,0,0,18.706.893a10.19,10.19,0,0,0,2.162-3.186,9.621,9.621,0,0,0,.782-3.865,9.578,9.578,0,0,0-.787-3.86,10.309,10.309,0,0,0-2.167-3.2,10.059,10.059,0,0,0-3.191-2.162,9.687,9.687,0,0,0-3.86-.777,9.65,9.65,0,0,0-3.855.777A10.136,10.136,0,0,0,4.6-13.214a10.192,10.192,0,0,0-2.167,3.2,9.632,9.632,0,0,0-.782,3.86,9.567,9.567,0,0,0,.787,3.865A10.263,10.263,0,0,0,4.6.893,10.263,10.263,0,0,0,7.79,3.06,9.567,9.567,0,0,0,11.656,3.848Zm0-1.832a8.012,8.012,0,0,1-3.181-.633,8.2,8.2,0,0,1-2.6-1.755,8.132,8.132,0,0,1-1.75-2.6,8.069,8.069,0,0,1-.628-3.181,8.069,8.069,0,0,1,.628-3.181,8.132,8.132,0,0,1,1.75-2.6,8.147,8.147,0,0,1,2.6-1.75,8.032,8.032,0,0,1,3.176-.628,8.069,8.069,0,0,1,3.181.628,8.132,8.132,0,0,1,2.6,1.75,8.2,8.2,0,0,1,1.755,2.6,8.012,8.012,0,0,1,.633,3.181A7.888,7.888,0,0,1,19.2-2.977a8.245,8.245,0,0,1-1.75,2.6,8.126,8.126,0,0,1-2.6,1.755A8.049,8.049,0,0,1,11.656,2.015ZM7.363-6.271h3.314a.76.76,0,0,0,.865-.854V-10.45a.694.694,0,0,0-.211-.51.694.694,0,0,0-.51-.211.682.682,0,0,0-.5.211.694.694,0,0,0-.211.51v.443l.1,1.462L7.8-11.078a.728.728,0,0,0-.546-.237.778.778,0,0,0-.556.226.716.716,0,0,0-.211.54.751.751,0,0,0,.221.54L9.226-7.6l-1.41-.093H7.363a.7.7,0,0,0-.51.206.677.677,0,0,0-.211.5.677.677,0,0,0,.211.5A.7.7,0,0,0,7.363-6.271Zm5.085,5.106a.694.694,0,0,0,.51-.211.694.694,0,0,0,.211-.51v-.443L13.055-3.79l2.429,2.532a.7.7,0,0,0,.535.237.778.778,0,0,0,.556-.226.706.706,0,0,0,.221-.546.706.706,0,0,0-.232-.535L14.044-4.737l1.42.093h.443a.7.7,0,0,0,.51-.206.677.677,0,0,0,.211-.5.677.677,0,0,0-.211-.5.7.7,0,0,0-.51-.206H12.592a.76.76,0,0,0-.865.854v3.325a.694.694,0,0,0,.211.51A.694.694,0,0,0,12.448-1.165Z" transform="translate(26.731 18.03) rotate(-135)" fill="#bbb"/>
</svg>
