<svg width="33" height="33" viewBox="0 0 33 33" fill="none" xmlns="http://www.w3.org/2000/svg">
<circle cx="16.1009" cy="16.1012" r="15" transform="rotate(-179.636 16.1009 16.1012)" stroke="#444444" stroke-width="2"/>
<path d="M21.3625 20.6003C21.7145 20.249 21.7148 19.6787 21.3632 19.327L18.6736 16.637C18.3222 16.2856 18.3222 15.7159 18.6736 15.3644L21.3627 12.6742C21.714 12.3229 21.7141 11.7534 21.363 11.4019L20.5989 10.637C20.2475 10.2852 19.6774 10.2851 19.3258 10.6366L16.6357 13.3263C16.2842 13.6777 15.7144 13.6777 15.3629 13.3262L12.6734 10.6366C12.3218 10.2851 11.7518 10.2852 11.4003 10.6368L10.6358 11.4019C10.2846 11.7534 10.2847 12.3229 10.6359 12.6743L13.3251 15.3644C13.6764 15.7159 13.6764 16.2856 13.3251 16.637L10.6364 19.3267C10.2849 19.6782 10.2851 20.2482 10.6367 20.5996L11.4017 21.3639C11.7532 21.7152 12.323 21.7151 12.6743 21.3636L15.3628 18.6742C15.7143 18.3226 16.2843 18.3226 16.6358 18.6742L19.3246 21.3639C19.6758 21.7153 20.2453 21.7156 20.5969 21.3646L21.3625 20.6003Z" fill="#444444"/>
</svg>
