<svg xmlns="http://www.w3.org/2000/svg" width="15.7" height="19.906" viewBox="0 0 15.7 19.906">
  <path id="Path_1413" data-name="Path 1413" d="M6.777-11.131h6.872a.55.55,0,0,0,.412-.169.575.575,0,0,0,.164-.417.545.545,0,0,0-.164-.4.56.56,0,0,0-.412-.163H6.777a.587.587,0,0,0-.426.163.538.538,0,0,0-.168.4.567.567,0,0,0,.168.417A.577.577,0,0,0,6.777-11.131Zm0,3.188h6.872a.55.55,0,0,0,.412-.169.575.575,0,0,0,.164-.417.545.545,0,0,0-.164-.4.559.559,0,0,0-.412-.163H6.777a.587.587,0,0,0-.426.163.538.538,0,0,0-.168.4.567.567,0,0,0,.168.417A.577.577,0,0,0,6.777-7.943Zm0,3.188h3.285a.574.574,0,0,0,.416-.163.538.538,0,0,0,.168-.4.567.567,0,0,0-.168-.417.565.565,0,0,0-.416-.169H6.777a.577.577,0,0,0-.426.169.567.567,0,0,0-.168.417.538.538,0,0,0,.168.4A.587.587,0,0,0,6.777-4.756ZM2.354.322a3.02,3.02,0,0,0,.741,2.217,2.965,2.965,0,0,0,2.194.745h9.83a2.963,2.963,0,0,0,2.2-.745A3.031,3.031,0,0,0,18.054.322V-13.651a3.047,3.047,0,0,0-.736-2.221,2.952,2.952,0,0,0-2.2-.75H5.288a2.955,2.955,0,0,0-2.194.75,3.035,3.035,0,0,0-.741,2.221ZM4.02.247V-13.577A1.4,1.4,0,0,1,4.37-14.6a1.394,1.394,0,0,1,1.038-.356H15a1.407,1.407,0,0,1,1.047.356,1.4,1.4,0,0,1,.35,1.024V.247a1.4,1.4,0,0,1-.35,1.023A1.407,1.407,0,0,1,15,1.626H5.408A1.394,1.394,0,0,1,4.37,1.271,1.4,1.4,0,0,1,4.02.247Z" transform="translate(-2.354 16.622)" fill="#bbb"/>
</svg>
