<svg id="layer1" xmlns="http://www.w3.org/2000/svg" width="11" height="12.928" viewBox="0 0 11 12.928">
  <path id="path2" d="M10.384,301.494c-.072.215-.072.215-.215.572l-.024.048a12.088,12.088,0,0,1-.644,1.359c-.286.143-.572.286-.978.525-.859.5-1.455.859-1.669,1.431A1.305,1.305,0,0,0,7.069,307a1.17,1.17,0,0,0,.763.286A1.125,1.125,0,0,0,8.6,307a3.025,3.025,0,0,0,.644-.954c.072-.119.143-.262.238-.453.382-.739.62-1.24.668-1.312,0-.024.024-.048.048-.071.167-.072.358-.143.572-.239a19.521,19.521,0,0,1,1.836-.668l.334-.119c.262-.1.453-.143.644-.215.238-.1.429-.143.62-.215.167.143.334.31.549.477a2.985,2.985,0,0,0,1.1.668,2.138,2.138,0,0,0,.954-.024,1.074,1.074,0,0,0,.882-1.1c.024-.358-.191-.978-1.121-1.145a5.581,5.581,0,0,0-1.789,0,1.43,1.43,0,0,1-.286.048,6.793,6.793,0,0,1-.668-.835,23.053,23.053,0,0,1-1.312-2.1c-.072-.119-.143-.262-.215-.382.048-.215.1-.453.143-.739l.072-.334a3.97,3.97,0,0,0,.1-1.956c-.167-.811-.715-1-1-.978h0c-.143,0-.715.1-.954.93a2.8,2.8,0,0,0,0,1.6,6.2,6.2,0,0,0,.668,1.6,17.6,17.6,0,0,1-.525,1.717c-.238.787-.358,1.1-.405,1.288ZM8.643,305.12c-.1.167-.167.334-.238.453a2.474,2.474,0,0,1-.429.692.25.25,0,0,1-.286-.024c-.024-.024-.1-.071.072-.5.1-.239.549-.525.954-.787A.357.357,0,0,1,8.643,305.12Zm6.988-2.623a3.5,3.5,0,0,1,.811.071c.238.048.31.143.31.167v.167a.328.328,0,0,1-.143.048,1.124,1.124,0,0,1-.477.024,2.392,2.392,0,0,1-.715-.453.66.66,0,0,1,.215-.024ZM11.6,295.532a.571.571,0,0,1,.072-.167c.024.024.024.072.048.143a2.765,2.765,0,0,1-.048,1.383.738.738,0,0,1-.048-.191A1.961,1.961,0,0,1,11.6,295.532Zm-.549,6.916.024-.048c.143-.382.143-.382.238-.62.048-.167.167-.5.429-1.264.119-.31.191-.6.262-.835a18.3,18.3,0,0,0,1.073,1.693c.167.215.286.405.429.572l-.215.072c-.167.072-.358.119-.62.215l-.334.119c-.6.191-.93.31-1.479.525.072-.143.119-.286.191-.429Z" transform="translate(-6.684 -294.362)" fill="#fff"/>
</svg>
