<svg xmlns="http://www.w3.org/2000/svg" width="20.648" height="12.94" viewBox="0 0 20.648 12.94">
  <path id="Quote_Open" data-name="Quote Open" d="M11.736-8.624a4.608,4.608,0,0,1-.552,2.256,4.321,4.321,0,0,1-1.5,1.6,3.894,3.894,0,0,1-2.125.6,4.02,4.02,0,0,1-1.6-.321,3.7,3.7,0,0,1-1.322-.964H4.358a4.848,4.848,0,0,0,.863,1.612,6.175,6.175,0,0,0,1.454,1.31,6.915,6.915,0,0,0,1.886.859,3.213,3.213,0,0,1,.386.138.9.9,0,0,1,.251.156.642.642,0,0,1,.182.216.621.621,0,0,1,.063.286.627.627,0,0,1-.216.494.808.808,0,0,1-.554.19A2.108,2.108,0,0,1,8.216-.24Q8-.287,7.674-.384A8.419,8.419,0,0,1,5.889-1.23,7.722,7.722,0,0,1,4.382-2.463,7.235,7.235,0,0,1,2.892-4.744a7.324,7.324,0,0,1-.539-2.834,6.26,6.26,0,0,1,.668-3,4.771,4.771,0,0,1,1.771-1.895,4.665,4.665,0,0,1,2.425-.655,4.53,4.53,0,0,1,2.31.592,4.364,4.364,0,0,1,1.615,1.611A4.5,4.5,0,0,1,11.736-8.624ZM23-8.624a4.608,4.608,0,0,1-.552,2.256,4.309,4.309,0,0,1-1.5,1.6,3.9,3.9,0,0,1-2.12.6,4.052,4.052,0,0,1-1.6-.321,3.61,3.61,0,0,1-1.317-.964h-.285a4.694,4.694,0,0,0,.859,1.612,6.282,6.282,0,0,0,1.454,1.31,6.828,6.828,0,0,0,1.892.859,3.806,3.806,0,0,1,.381.138,1.028,1.028,0,0,1,.263.156.631.631,0,0,1,.169.216.66.66,0,0,1,.059.286.633.633,0,0,1-.212.494.792.792,0,0,1-.549.19,2.086,2.086,0,0,1-.461-.048q-.21-.048-.547-.144A8.591,8.591,0,0,1,17.15-1.23a7.664,7.664,0,0,1-1.512-1.232,7.259,7.259,0,0,1-1.475-2.282,7.377,7.377,0,0,1-.534-2.834,11.53,11.53,0,0,1,.663-3,8.826,8.826,0,0,1,1.766-1.895,4.663,4.663,0,0,1,2.424-.655,4.535,4.535,0,0,1,2.312.592,4.36,4.36,0,0,1,1.615,1.611A4.506,4.506,0,0,1,23-8.624Z" transform="translate(-2.354 13.132)" fill="#bbb"/>
</svg>
