<svg width="32" height="32" viewBox="0 0 32 32" fill="none" xmlns="http://www.w3.org/2000/svg">
<circle cx="16" cy="16" r="15" stroke="#444444" stroke-width="2"/>
<path d="M21.3419 15.886C21.1377 15.9541 21.0101 16.1448 21.0176 16.3598C21.0246 16.5599 20.9879 16.7739 20.7024 17.6085C20.2758 18.8556 19.3722 19.8827 18.1895 20.4647C17.0051 21.0433 15.6395 21.1288 14.3922 20.7023C13.1449 20.2759 12.1175 19.3723 11.5354 18.1896C10.9565 17.005 10.8711 15.6393 11.2978 14.3918C11.7246 13.1443 12.6286 12.1169 13.8118 11.535C14.5776 11.1595 15.3891 11.0025 16.183 11.0349C16.529 11.049 16.7056 11.4294 16.5314 11.7287L16.0814 12.5013C15.8611 12.8798 16.1992 13.3386 16.6259 13.2401L21.2634 12.1699C21.6125 12.0894 21.7661 11.6785 21.5553 11.3887L18.7009 7.4637C18.4402 7.10523 17.8765 7.2381 17.8034 7.67526L17.6395 8.65458C17.592 8.93855 17.3151 9.12208 17.0304 9.07917C15.6315 8.86832 14.1968 9.08756 12.9193 9.71455C9.44851 11.418 8.01427 15.6095 9.71533 19.0819C11.4185 22.5533 15.6105 23.9871 19.082 22.2852C22.2955 20.7097 22.9169 18.3791 22.5949 16.0584C22.5536 15.7605 22.248 15.584 21.9627 15.6791L21.3419 15.886Z" fill="#444444"/>
</svg>
