<svg xmlns="http://www.w3.org/2000/svg" width="20" height="20" viewBox="0 0 20 20">
  <path id="_Reply" data-name="􀰠 Reply" d="M11.656-16.822a9.578,9.578,0,0,1,3.86.787,10.246,10.246,0,0,1,3.191,2.167,10.19,10.19,0,0,1,2.162,3.186,9.621,9.621,0,0,1,.782,3.865,9.578,9.578,0,0,1-.787,3.86A10.309,10.309,0,0,1,18.7.239,10.059,10.059,0,0,1,15.505,2.4a9.687,9.687,0,0,1-3.86.777A9.65,9.65,0,0,1,7.79,2.4,10.136,10.136,0,0,1,4.6.239a10.192,10.192,0,0,1-2.167-3.2,9.632,9.632,0,0,1-.782-3.86,9.567,9.567,0,0,1,.787-3.865A10.263,10.263,0,0,1,4.6-13.868,10.263,10.263,0,0,1,7.79-16.035,9.567,9.567,0,0,1,11.656-16.822Zm0,1.832a8.012,8.012,0,0,0-3.181.633,8.2,8.2,0,0,0-2.6,1.755A8.132,8.132,0,0,0,4.121-10a8.069,8.069,0,0,0-.628,3.181,8.069,8.069,0,0,0,.628,3.181,8.132,8.132,0,0,0,1.75,2.6A8.147,8.147,0,0,0,8.47.718a8.032,8.032,0,0,0,3.176.628A8.069,8.069,0,0,0,14.826.718a8.131,8.131,0,0,0,2.6-1.75,8.2,8.2,0,0,0,1.755-2.6,8.012,8.012,0,0,0,.633-3.181A7.888,7.888,0,0,0,19.2-10a8.245,8.245,0,0,0-1.75-2.6,8.126,8.126,0,0,0-2.6-1.755A8.049,8.049,0,0,0,11.656-14.99ZM6.921-11a.884.884,0,0,1,.36.077.734.734,0,0,1,.319.345A3.641,3.641,0,0,0,9.2-8.886a5.611,5.611,0,0,0,2.434.463h.144v-1.935a.628.628,0,0,1,.185-.463.628.628,0,0,1,.463-.185,1.111,1.111,0,0,1,.731.35L17.265-6.8a.861.861,0,0,1,.216.293.741.741,0,0,1,.062.283.764.764,0,0,1-.062.293.861.861,0,0,1-.216.293L13.158-1.815a1.718,1.718,0,0,1-.365.293.726.726,0,0,1-.355.087.616.616,0,0,1-.473-.2.669.669,0,0,1-.185-.468V-4.028h-.144a5.521,5.521,0,0,1-3-.741A4.41,4.41,0,0,1,6.9-6.889a8.6,8.6,0,0,1-.566-3.273.937.937,0,0,1,.18-.623A.527.527,0,0,1,6.921-11Z" transform="translate(-1.65 16.822)" fill="#bbb"/>
</svg>
