<svg width="32" height="32" viewBox="0 0 32 32" fill="none" xmlns="http://www.w3.org/2000/svg">
<path d="M14.9871 20.9735C16.3154 20.9732 17.6055 20.5285 18.6519 19.7103L21.9418 23L23 21.9418L19.7101 18.6521C20.5288 17.6057 20.9738 16.3154 20.9741 14.9867C20.9741 11.6858 18.2882 9 14.9871 9C11.6859 9 9 11.6858 9 14.9867C9 18.2877 11.6859 20.9735 14.9871 20.9735ZM14.9871 10.4967C17.4635 10.4967 19.4774 12.5105 19.4774 14.9867C19.4774 17.463 17.4635 19.4768 14.9871 19.4768C12.5107 19.4768 10.4968 17.463 10.4968 14.9867C10.4968 12.5105 12.5107 10.4967 14.9871 10.4967Z" fill="#444444"/>
<circle cx="16" cy="16" r="15" stroke="#444444" stroke-width="2"/>
</svg>
