<svg xmlns="http://www.w3.org/2000/svg" width="11.866" height="17.497" viewBox="0 0 11.866 17.497">
  <path id="_Thread" data-name="􀒋 Thread" d="M2.7,21.083a.771.771,0,0,0,.547-.176.9.9,0,0,0,.253-.484l1.851-9.251-1.041.785h7l-1.032-.785,1.857,9.251a.852.852,0,0,0,.244.484.77.77,0,0,0,.546.176.747.747,0,0,0,.7-.309.931.931,0,0,0,.1-.71l-1.753-8.689a1.366,1.366,0,0,0-.445-.77,1.175,1.175,0,0,0-.8-.3H4.906a1.192,1.192,0,0,0-.8.3,1.35,1.35,0,0,0-.449.769L1.909,20.063a.966.966,0,0,0,.106.715A.74.74,0,0,0,2.7,21.083Zm1.917-9.954H11L8.655,4.208a.827.827,0,0,0-.826-.622.838.838,0,0,0-.859.622Z" transform="translate(-1.885 -3.586)" fill="#bbb"/>
</svg>
