<svg width="32" height="32" viewBox="0 0 32 32" fill="none" xmlns="http://www.w3.org/2000/svg">
<path d="M17.4 10C17.4 9.44771 16.9523 9 16.4 9H15.6C15.0477 9 14.6 9.44772 14.6 10V13.6C14.6 14.1523 14.1523 14.6 13.6 14.6H10C9.44771 14.6 9 15.0477 9 15.6V16.4C9 16.9523 9.44772 17.4 10 17.4H13.6C14.1523 17.4 14.6 17.8477 14.6 18.4V22C14.6 22.5523 15.0477 23 15.6 23H16.4C16.9523 23 17.4 22.5523 17.4 22V18.4C17.4 17.8477 17.8477 17.4 18.4 17.4H22C22.5523 17.4 23 16.9523 23 16.4V15.6C23 15.0477 22.5523 14.6 22 14.6H18.4C17.8477 14.6 17.4 14.1523 17.4 13.6V10Z" fill="#444444"/>
<circle cx="16" cy="16" r="15" stroke="#444444" stroke-width="2"/>
</svg>
