<svg xmlns="http://www.w3.org/2000/svg" width="30" height="26.098" viewBox="0 0 30 26.098">
  <path id="_Add_New" data-name="􀉦 Add New" d="M15.516,9.852a11.91,11.91,0,0,0,4.9-1.024A12.918,12.918,0,0,0,24.46,6.011,13.422,13.422,0,0,0,27.2,1.869a12.7,12.7,0,0,0,1-5.026,12.714,12.714,0,0,0-1-5.019,13.424,13.424,0,0,0-2.75-4.156A12.758,12.758,0,0,0,20.4-15.142a12.045,12.045,0,0,0-4.9-1.01,11.993,11.993,0,0,0-4.58.883,12.811,12.811,0,0,0-3.874,2.463,13.206,13.206,0,0,0-2.8,3.681,12.742,12.742,0,0,0-1.346,4.51A7.582,7.582,0,0,1,4.07-4.756a6.315,6.315,0,0,1,1.215.047,10.465,10.465,0,0,1,1.15-3.58A10.561,10.561,0,0,1,8.7-11.174a10.219,10.219,0,0,1,3.1-1.914,10.007,10.007,0,0,1,3.7-.683,10.032,10.032,0,0,1,4.037.816,10.311,10.311,0,0,1,3.306,2.275,10.683,10.683,0,0,1,2.228,3.386,10.637,10.637,0,0,1,.8,4.136,10.713,10.713,0,0,1-.8,4.136,10.592,10.592,0,0,1-2.221,3.386,10.381,10.381,0,0,1-3.312,2.282,9.976,9.976,0,0,1-4.031.823,9.888,9.888,0,0,1-1.895-.181,9.429,9.429,0,0,1-1.777-.529,6,6,0,0,1-.529,1.077,7.753,7.753,0,0,1-.712.97,11.7,11.7,0,0,0,2.365.776A12.053,12.053,0,0,0,15.516,9.852ZM19.7,7.791l1.79-.91L19.7-1.577a1.582,1.582,0,0,0-.418-.8,1.081,1.081,0,0,0-.771-.355h-.091l-2.064-6.25a.86.86,0,0,0-.5-.555.9.9,0,0,0-.7,0,.9.9,0,0,0-.5.555l-2.038,6.25h-.091a1.086,1.086,0,0,0-.725.315,1.454,1.454,0,0,0-.425.716l-.144.709A8.565,8.565,0,0,1,11.955.39a7.348,7.348,0,0,1,.451,1.539l.549-2.9h5.1ZM4.527,9.946a5.9,5.9,0,0,0,2.424-.509A6.474,6.474,0,0,0,8.97,8.032a6.741,6.741,0,0,0,1.378-2.068,6.257,6.257,0,0,0,.5-2.5A6.354,6.354,0,0,0,10,.216,6.561,6.561,0,0,0,7.7-2.133,5.99,5.99,0,0,0,4.527-3.01a5.946,5.946,0,0,0-3.169.877A6.651,6.651,0,0,0-.935.216,6.317,6.317,0,0,0-1.8,3.468a6.376,6.376,0,0,0,.5,2.5A6.682,6.682,0,0,0,.065,8.045a6.285,6.285,0,0,0,2.019,1.4A6.041,6.041,0,0,0,4.527,9.946Zm-.013-2.4a.784.784,0,0,1-.588-.228A.807.807,0,0,1,3.7,6.734V4.285H1.326a.78.78,0,0,1-.575-.221.8.8,0,0,1-.222-.6.8.8,0,0,1,.222-.6.78.78,0,0,1,.575-.221H3.7V.216a.825.825,0,0,1,.222-.6.784.784,0,0,1,.588-.228A.763.763,0,0,1,5.1-.386a.84.84,0,0,1,.216.6V2.652H7.7a.78.78,0,0,1,.575.221.8.8,0,0,1,.222.6.8.8,0,0,1-.222.6.78.78,0,0,1-.575.221H5.311V6.734a.821.821,0,0,1-.216.589A.763.763,0,0,1,4.514,7.55Z" transform="translate(1.797 16.152)" fill="#6ac517"/>
</svg>
