<svg xmlns="http://www.w3.org/2000/svg" width="24.077" height="20.946" viewBox="0 0 24.077 20.946">
  <path id="_Add_New" data-name="􀉦 Add New" d="M12.1,4.718A9.559,9.559,0,0,0,16.03,3.9a10.368,10.368,0,0,0,3.246-2.261,10.772,10.772,0,0,0,2.2-3.324,10.192,10.192,0,0,0,.8-4.033,10.2,10.2,0,0,0-.8-4.028,10.774,10.774,0,0,0-2.207-3.335,10.24,10.24,0,0,0-3.251-2.256,9.667,9.667,0,0,0-3.932-.811,9.625,9.625,0,0,0-3.676.709A10.282,10.282,0,0,0,5.3-13.467a10.6,10.6,0,0,0-2.244,2.954,10.227,10.227,0,0,0-1.08,3.62,6.085,6.085,0,0,1,.933-.113,5.069,5.069,0,0,1,.975.038A8.4,8.4,0,0,1,4.81-9.842a8.476,8.476,0,0,1,1.814-2.315,8.2,8.2,0,0,1,2.491-1.536,8.032,8.032,0,0,1,2.973-.548,8.052,8.052,0,0,1,3.24.655,8.276,8.276,0,0,1,2.653,1.826,8.574,8.574,0,0,1,1.788,2.718,8.537,8.537,0,0,1,.645,3.319,8.6,8.6,0,0,1-.64,3.319A8.5,8.5,0,0,1,17.991.314a8.332,8.332,0,0,1-2.658,1.831,8.007,8.007,0,0,1-3.235.661,7.936,7.936,0,0,1-1.521-.145,7.567,7.567,0,0,1-1.426-.424,4.817,4.817,0,0,1-.425.865,6.222,6.222,0,0,1-.572.779,9.388,9.388,0,0,0,1.9.623A9.674,9.674,0,0,0,12.1,4.718Zm3.356-1.654,1.437-.73L15.454-4.455a1.269,1.269,0,0,0-.336-.639.867.867,0,0,0-.619-.285h-.073l-1.657-5.016a.69.69,0,0,0-.4-.446.726.726,0,0,0-.561,0,.725.725,0,0,0-.4.446L9.77-5.379H9.7a.871.871,0,0,0-.582.252,1.167,1.167,0,0,0-.341.575l-.115.569A6.874,6.874,0,0,1,9.24-2.876,5.9,5.9,0,0,1,9.6-1.641l.44-2.331h4.09ZM3.279,4.794a4.733,4.733,0,0,0,1.945-.408,5.2,5.2,0,0,0,1.62-1.128A5.41,5.41,0,0,0,7.95,1.6a5.021,5.021,0,0,0,.4-2,5.1,5.1,0,0,0-.687-2.61A5.266,5.266,0,0,0,5.822-4.9a4.808,4.808,0,0,0-2.543-.7,4.773,4.773,0,0,0-2.543.7A5.338,5.338,0,0,0-1.1-3.015,5.07,5.07,0,0,0-1.8-.405,5.118,5.118,0,0,0-1.4,1.6,5.363,5.363,0,0,0-.3,3.268a5.044,5.044,0,0,0,1.62,1.122A4.848,4.848,0,0,0,3.279,4.794Zm-.01-1.923A.63.63,0,0,1,2.8,2.688a.648.648,0,0,1-.178-.473V.25H.709A.626.626,0,0,1,.248.073.644.644,0,0,1,.07-.405.644.644,0,0,1,.248-.883a.626.626,0,0,1,.461-.177H2.618V-3.015A.662.662,0,0,1,2.8-3.5a.63.63,0,0,1,.472-.183.612.612,0,0,1,.467.183.674.674,0,0,1,.173.483v1.955H5.827a.626.626,0,0,1,.461.177.644.644,0,0,1,.178.478.644.644,0,0,1-.178.478A.626.626,0,0,1,5.827.25H3.908V2.216a.659.659,0,0,1-.173.473A.612.612,0,0,1,3.268,2.871Z" transform="translate(1.797 16.152)" fill="#bbb"/>
</svg>
