<svg xmlns="http://www.w3.org/2000/svg" width="21" height="21" viewBox="0 0 21 21">
  <path id="_Down_Chevron" data-name="ô€° Down Chevron" d="M12.156,4.848a10.057,10.057,0,0,0,4.053-.827,10.758,10.758,0,0,0,3.35-2.275A10.7,10.7,0,0,0,21.829-1.6a10.1,10.1,0,0,0,.821-4.058,10.057,10.057,0,0,0-.827-4.053,10.824,10.824,0,0,0-2.275-3.356,10.562,10.562,0,0,0-3.35-2.27,10.171,10.171,0,0,0-4.053-.816,10.133,10.133,0,0,0-4.048.816,10.643,10.643,0,0,0-3.35,2.27A10.7,10.7,0,0,0,2.472-9.711,10.114,10.114,0,0,0,1.65-5.658,10.045,10.045,0,0,0,2.477-1.6,10.777,10.777,0,0,0,4.752,1.746,10.777,10.777,0,0,0,8.1,4.021,10.045,10.045,0,0,0,12.156,4.848Zm0-1.924a8.413,8.413,0,0,1-3.34-.665A8.612,8.612,0,0,1,6.082.416,8.538,8.538,0,0,1,4.244-2.318a8.473,8.473,0,0,1-.659-3.34A8.473,8.473,0,0,1,4.244-9a8.538,8.538,0,0,1,1.837-2.734,8.554,8.554,0,0,1,2.729-1.837,8.433,8.433,0,0,1,3.334-.659,8.473,8.473,0,0,1,3.34.659,8.538,8.538,0,0,1,2.734,1.837A8.612,8.612,0,0,1,20.062-9a8.413,8.413,0,0,1,.665,3.34,8.283,8.283,0,0,1-.654,3.34A8.657,8.657,0,0,1,18.235.416,8.533,8.533,0,0,1,15.5,2.259,8.452,8.452,0,0,1,12.156,2.924Zm1.038-5.318,3.956-4.194a.935.935,0,0,0,.249-.6.721.721,0,0,0-.216-.557A.845.845,0,0,0,16.592-8a.691.691,0,0,0-.567.249L12.134-3.647,8.265-7.755a.738.738,0,0,0-.578-.254.808.808,0,0,0-.589.265.757.757,0,0,0-.211.557.935.935,0,0,0,.232.6L11.1-2.394a1.39,1.39,0,0,0,1.043.53A1.422,1.422,0,0,0,13.193-2.394Z" transform="translate(-1.65 16.152)" fill="#444"/>
</svg>
