<svg xmlns="http://www.w3.org/2000/svg" width="33.959" height="33.959" viewBox="0 0 33.959 33.959">
  <g id="Folder-Clock" transform="translate(73.944 -19.375)">
    <path id="shape-color" d="M35.046,24.84l-9.468,9.466-4.665-4.663a1.132,1.132,0,0,0-1.6,1.6l5.466,5.466h0a1.127,1.127,0,0,0,.513.295l.191.033h.193a1.127,1.127,0,0,0,.7-.327L36.647,26.44a1.132,1.132,0,0,0-1.6-1.6Z" transform="translate(-83.944 6.375)" fill="#ee3224"/>
    <path id="shape-color-2" data-name="shape-color" d="M26.98,13a16.98,16.98,0,1,0,16.98,16.98A16.98,16.98,0,0,0,26.98,13Zm0,2.264A14.716,14.716,0,1,1,12.264,29.98,14.716,14.716,0,0,1,26.98,15.264Z" transform="translate(-83.944 6.375)" fill="#ffcb05"/>
  </g>
</svg>
