<svg xmlns="http://www.w3.org/2000/svg" width="20" height="20" viewBox="0 0 20 20">
  <path id="_Previous" data-name="ô€° Previous" d="M11.65,3.838a9.6,9.6,0,0,0,3.868-.787A10.241,10.241,0,0,0,18.708.885,10.185,10.185,0,0,0,20.868-2.3a9.616,9.616,0,0,0,.782-3.863,9.616,9.616,0,0,0-.782-3.863A10.2,10.2,0,0,0,18.7-13.215a10.187,10.187,0,0,0-3.194-2.166,9.652,9.652,0,0,0-3.868-.782,9.6,9.6,0,0,0-3.848.782A10.187,10.187,0,0,0,4.6-13.215a10.2,10.2,0,0,0-2.166,3.189A9.616,9.616,0,0,0,1.65-6.162,9.562,9.562,0,0,0,2.437-2.3,10.258,10.258,0,0,0,4.6.885,10.241,10.241,0,0,0,7.792,3.051,9.573,9.573,0,0,0,11.65,3.838ZM11.65,2a7.982,7.982,0,0,1-3.169-.633,8.179,8.179,0,0,1-2.6-1.749,8.109,8.109,0,0,1-1.744-2.6,8.065,8.065,0,0,1-.628-3.179A8.039,8.039,0,0,1,4.14-9.331a8.169,8.169,0,0,1,1.744-2.6,8.153,8.153,0,0,1,2.593-1.754,7.945,7.945,0,0,1,3.164-.633,8,8,0,0,1,3.184.633,8.214,8.214,0,0,1,2.6,1.754,8.2,8.2,0,0,1,1.754,2.6,7.982,7.982,0,0,1,.633,3.169,7.83,7.83,0,0,1-.628,3.179,8.294,8.294,0,0,1-1.749,2.6A8.119,8.119,0,0,1,14.84,1.364,8.034,8.034,0,0,1,11.65,2ZM6.64-6.172a.9.9,0,0,0,.3.648l3.3,3.272a.755.755,0,0,0,.556.226.7.7,0,0,0,.53-.221.753.753,0,0,0,.211-.54.73.73,0,0,0-.237-.566L10.107-4.506,8.965-5.442l2.027.082H15.9a.738.738,0,0,0,.566-.231.819.819,0,0,0,.216-.581.79.79,0,0,0-.221-.576.751.751,0,0,0-.561-.226H10.992l-2.016.082,1.132-.916L11.3-8.981a.772.772,0,0,0,.237-.566.741.741,0,0,0-.211-.53.7.7,0,0,0-.53-.221.774.774,0,0,0-.556.216L6.938-6.8A.91.91,0,0,0,6.64-6.172Z" transform="translate(-1.65 16.162)" fill="#444"/>
</svg>
