<svg xmlns="http://www.w3.org/2000/svg" width="20" height="20" viewBox="0 0 20 20">
  <path id="_Search" data-name="􀒒 Search" d="M11.65,3.838a9.6,9.6,0,0,0,3.868-.787A10.241,10.241,0,0,0,18.708.885,10.185,10.185,0,0,0,20.868-2.3a9.616,9.616,0,0,0,.782-3.863,9.616,9.616,0,0,0-.782-3.863A10.2,10.2,0,0,0,18.7-13.215a10.187,10.187,0,0,0-3.194-2.166,9.652,9.652,0,0,0-3.868-.782,9.6,9.6,0,0,0-3.848.782A10.187,10.187,0,0,0,4.6-13.215a10.2,10.2,0,0,0-2.166,3.189A9.616,9.616,0,0,0,1.65-6.162,9.562,9.562,0,0,0,2.437-2.3,10.258,10.258,0,0,0,4.6.885,10.241,10.241,0,0,0,7.792,3.051,9.573,9.573,0,0,0,11.65,3.838ZM11.65,2a7.982,7.982,0,0,1-3.169-.633,8.179,8.179,0,0,1-2.6-1.749,8.109,8.109,0,0,1-1.744-2.6,8.065,8.065,0,0,1-.628-3.179A8.039,8.039,0,0,1,4.14-9.331a8.169,8.169,0,0,1,1.744-2.6,8.153,8.153,0,0,1,2.593-1.754,7.945,7.945,0,0,1,3.164-.633,8,8,0,0,1,3.184.633,8.214,8.214,0,0,1,2.6,1.754,8.2,8.2,0,0,1,1.754,2.6,7.982,7.982,0,0,1,.633,3.169,7.83,7.83,0,0,1-.628,3.179,8.294,8.294,0,0,1-1.749,2.6A8.119,8.119,0,0,1,14.84,1.364,8.034,8.034,0,0,1,11.65,2ZM10.622-3.2a3.914,3.914,0,0,0,2.032-.545A4.127,4.127,0,0,0,14.12-5.205a3.906,3.906,0,0,0,.545-2.037,3.914,3.914,0,0,0-.545-2.032,4.155,4.155,0,0,0-1.466-1.471,3.886,3.886,0,0,0-2.032-.55,3.886,3.886,0,0,0-2.032.55A4.2,4.2,0,0,0,7.118-9.274a3.886,3.886,0,0,0-.55,2.032,3.886,3.886,0,0,0,.55,2.032A4.155,4.155,0,0,0,8.59-3.744,3.914,3.914,0,0,0,10.622-3.2Zm0-1.379a2.519,2.519,0,0,1-1.332-.365,2.822,2.822,0,0,1-.967-.972,2.527,2.527,0,0,1-.365-1.327A2.527,2.527,0,0,1,8.322-8.57a2.778,2.778,0,0,1,.967-.967,2.546,2.546,0,0,1,1.332-.36,2.527,2.527,0,0,1,1.322.36,2.792,2.792,0,0,1,.967.962,2.519,2.519,0,0,1,.365,1.332,2.527,2.527,0,0,1-.365,1.327,2.822,2.822,0,0,1-.967.972A2.5,2.5,0,0,1,10.622-4.578ZM15.848-1.09a.821.821,0,0,0,.612-.247.873.873,0,0,0,.242-.638.758.758,0,0,0-.077-.334.939.939,0,0,0-.211-.283L13.42-5.617,12.113-4.4l3.014,3A.965.965,0,0,0,15.848-1.09Z" transform="translate(-1.65 16.162)"/>
</svg>
