<?xml version="1.0" encoding="utf-8"?>
<!-- Generator: Adobe Illustrator 25.0.0, SVG Export Plug-In . SVG Version: 6.00 Build 0)  -->
<svg version="1.1" id="Layer_1" xmlns="http://www.w3.org/2000/svg" xmlns:xlink="http://www.w3.org/1999/xlink" x="0px" y="0px"
	 viewBox="0 0 754.85 718.17" style="enable-background:new 0 0 754.85 718.17;" xml:space="preserve">
<style type="text/css">
	.st0{fill:none;stroke:#6E6F70;stroke-width:0.162;}
	.st1{fill-rule:evenodd;clip-rule:evenodd;fill:#E30016;}
	.st2{clip-path:url(#SVGID_2_);fill:url(#SVGID_3_);}
	.st3{fill-rule:evenodd;clip-rule:evenodd;fill:#A21319;}
	.st4{clip-path:url(#SVGID_5_);fill:url(#SVGID_6_);}
	.st5{clip-path:url(#SVGID_8_);fill:url(#SVGID_9_);}
</style>
<rect y="-16.9" class="st0" width="1092.99" height="738.13"/>
<path class="st1" d="M460.86,290.66l-6.04,34.25h-8.67c0.54-10.48-0.8-25.63-17.3-25.63h-11.91l-17.94,87.78
	c-2.3,12.98-0.45,16.98,13.06,16.98l-1.41,8.12h-67.26l1.44-8.12c15.71,0,20.89-5.26,23.15-18.55l17.62-86.21h-10.71
	c-16.49,0-23.29,15.15-26.52,25.63h-8.67l6.29-34.25H460.86z M654.89,299.28h-9.4l-10.63,51.14h0.66c8.9,0,15.72-0.73,20.47-2.26
	c4.75-1.53,8.81-4.28,12.17-8.26c3.36-3.98,5.73-9.14,7.07-15.54c1.95-9.26,1.04-16.08-2.69-20.52
	C667.72,298.05,661.71,299.28,654.89,299.28z M599.6,290.66h58.56c1.39-0.01,2.7,0,3.95,0h5.92c12.42,0,17.58,1.35,21.83,3.05
	c6.62,2.66,12.06,5.79,15.54,11.26c3.46,5.44,4.44,11.87,2.9,19.21c-1.87,8.96-8.25,16.38-16.42,22.23
	c-5.2,3.72-11.97,6.48-20.3,8.32l22.74,41.13c4.18,7.53,7.76,8.18,19.39,8.18l-1.46,8.12h-44.99v-0.82l-29.97-54.56h-3.74
	l-6.46,31.09c-1.94,11.12,0.8,16.16,11.85,16.16v0.08l-1.44,8.04h-63.52v-0.01l1.45-8.11c11.66,0,18.25-6.5,19.66-15.6l15.64-75.27
	c2.01-9.68-0.89-13.89-8.99-13.89h-3.66v-0.1L599.6,290.66z M484.16,362.9h32.57l-6.67-42.62L484.16,362.9z M518.56,374.67
	c-13.85,0-27.71,0-41.56,0l-11.2,18.78c-4.39,6.98-2.8,10.62,5.96,10.62l10.85-0.03l-1.63,8.12h-54.56l1.44-8.12
	c19.78,0,18.38-0.3,28.69-17.25l43.44-71.45c1.5-2.47,3.1-5.15,4.28-7.55c3.42-6.88-0.2-8.43-6.53-8.51l-3.27,0.01l1.52-8.62h40.8
	l15.83,101.15c1.03,7.72,4.38,12.22,14.44,12.22l-1.43,8.12h-57.64l1.43-8.12c7.52,0,14.03-1.01,11.67-13.38L518.56,374.67z
	 M315.2,355.87c4.25,6.57,5.13,13.84,3.53,21.44c-2.3,10.9-9.09,19.28-17.98,25.72c-10.06,7.26-21.48,10.65-33.88,10.65
	c-3.75,0-7.53-0.34-11.2-1.14c-4.21-0.95-8.47-2.56-12.44-4.22c-1.82-0.75-4.06-1.51-6.05-1.51c-1.5,0-3.09,0.68-4.38,1.41
	c-1.73,0.96-3.13,2.42-4.32,4h-8.7l8.06-45.51c3.22,0,6.43,0,9.67,0l0.01,1.96c0.08,9.47,2.11,19.29,9,26.26
	c5.82,5.92,12.8,8.94,21.12,8.94c5.82,0,11.37-1.33,16.14-4.75c3.71-2.67,6.81-6.14,7.78-10.72c0.48-2.27,0.3-4.5-0.57-6.66
	c-1.03-2.53-2.9-4.65-4.97-6.39c-3.86-3.26-9.94-6.33-14.45-8.59c-7.02-3.53-15.83-8.11-21.79-13.26
	c-4.09-3.51-7.38-7.73-9.33-12.78c-1.96-5.09-2.08-10.42-0.96-15.72c2.15-10.19,8.19-18.16,16.46-24.33
	c9-6.69,19.21-9.93,30.43-9.93c3.98,0,7.95,0.42,11.82,1.38c3.43,0.87,6.83,2.32,9.98,3.89c5.28,2.42,13.18,1.56,14.23-4.09
	l0.23-1.25h8.06l-7.75,43.75h-7.91c0.51-2.93,0.75-6.03,0.15-8.97c-1.23-6.06-5.22-12.08-9.45-16.42
	c-5.24-5.37-11.52-8.08-19.03-8.08c-5.2,0-10.22,1.13-14.48,4.21c-3.25,2.31-6.02,5.34-6.87,9.34c-0.38,1.83-0.38,3.75,0.38,5.49
	c1.25,2.79,3.79,5.19,6.17,7.02c4.55,3.44,12.21,7.04,17.32,9.63C297.68,340.88,309.91,347.75,315.2,355.87z"/>
<g>
	<defs>
		<path id="SVGID_4_" d="M0,167.63l150.28,151.02c18.33,18.43,18.33,48.59,0,67.02L0,536.7v-65.13l85.46-85.89
			c18.34-18.43,18.34-48.59,0-67.02L0,232.77V167.63z"/>
	</defs>
	<clipPath id="SVGID_2_">
		<use xlink:href="#SVGID_4_"  style="overflow:visible;"/>
	</clipPath>
	
		<linearGradient id="SVGID_3_" gradientUnits="userSpaceOnUse" x1="1179.8374" y1="-2006.7921" x2="1179.8374" y2="-2498.8833" gradientTransform="matrix(0.317 0.6797 0.6797 -0.317 762.588 -940.4775)">
		<stop  offset="0" style="stop-color:#A31218"/>
		<stop  offset="0.51" style="stop-color:#E62E14"/>
		<stop  offset="1" style="stop-color:#F69E00"/>
	</linearGradient>
	<polygon class="st2" points="138.49,103.05 309.97,470.78 30.11,601.28 -141.36,233.55 	"/>
</g>
<path class="st3" d="M0,223.02l95.16,95.64c18.34,18.43,18.34,48.59,0,67.02L0,481.32v-61.44l34.04-34.21
	c18.34-18.43,18.34-48.59,0-67.02L0,284.45V223.02z"/>
</svg>
