<svg xmlns="http://www.w3.org/2000/svg" width="20" height="20" viewBox="0 0 20 20">
  <path id="_Reply_on_Replay" data-name="􀰤 Reply on Replay" d="M11.645,2.848a9.578,9.578,0,0,0-3.86.787A10.252,10.252,0,0,0,2.433,8.988a9.9,9.9,0,0,0,.005,7.725,10.309,10.309,0,0,0,2.167,3.2A10.059,10.059,0,0,0,7.8,22.071a9.687,9.687,0,0,0,3.86.777,9.65,9.65,0,0,0,3.855-.777,10.223,10.223,0,0,0,5.358-5.358,9.9,9.9,0,0,0-.005-7.725A10.3,10.3,0,0,0,15.51,3.635,9.567,9.567,0,0,0,11.645,2.848Zm0,1.832a8.012,8.012,0,0,1,3.181.633A8.18,8.18,0,0,1,19.18,9.672a8.176,8.176,0,0,1-4.349,10.715,8.032,8.032,0,0,1-3.176.628,8.093,8.093,0,0,1-5.785-2.378,8.2,8.2,0,0,1-1.755-2.6,8.012,8.012,0,0,1-.633-3.181,7.888,7.888,0,0,1,.623-3.181,8.245,8.245,0,0,1,1.75-2.6,8.1,8.1,0,0,1,5.79-2.388Zm2.182,4.2a.632.632,0,0,0-.422.139.435.435,0,0,0-.175.3v.216l3.15,2.9a1.581,1.581,0,0,1,.365.484,1.265,1.265,0,0,1,0,1.112,1.708,1.708,0,0,1-.365.494l-3.15,2.882v.216a.458.458,0,0,0,.175.319.633.633,0,0,0,.432.144.677.677,0,0,0,.34-.087,2.157,2.157,0,0,0,.36-.273l3.942-3.706a.622.622,0,0,0,.206-.262.809.809,0,0,0,.051-.283.782.782,0,0,0-.051-.273.691.691,0,0,0-.206-.273L14.538,9.23a1.92,1.92,0,0,0-.36-.268A.732.732,0,0,0,13.827,8.88Zm-2.584,0a.579.579,0,0,0-.432.18.617.617,0,0,0-.175.448V11.36h-.144a5.5,5.5,0,0,1-2.362-.448A3.462,3.462,0,0,1,6.581,9.291a.7.7,0,0,0-.3-.324.826.826,0,0,0-.345-.077.478.478,0,0,0-.386.2.917.917,0,0,0-.16.582,8.294,8.294,0,0,0,.546,3.16A4.235,4.235,0,0,0,7.605,14.87a5.334,5.334,0,0,0,2.887.71h.144v1.863a.659.659,0,0,0,.175.453.568.568,0,0,0,.443.2.677.677,0,0,0,.34-.087,1.886,1.886,0,0,0,.35-.273L15.9,14.026a.877.877,0,0,0,.206-.268.656.656,0,0,0,.062-.278.668.668,0,0,0-.062-.273.853.853,0,0,0-.206-.273L11.944,9.23a1.4,1.4,0,0,0-.35-.268A.772.772,0,0,0,11.244,8.88Z" transform="translate(-1.65 -2.848)" fill="#bbb"/>
</svg>
